<svg width="210" height="39" viewBox="0 0 210 39" fill="none" xmlns="http://www.w3.org/2000/svg">
<path d="M38 38.1142H0V28.4634H4.64799V33.4662H33.3875V29.244H38V38.1142Z" fill="white"/>
<path d="M38 10.1553H33.3875V4.72677H4.64799V9.76505H0V0.114258H38V10.1553Z" fill="white"/>
<path d="M14.2632 30.2374H9.40234L14.2632 18.3513H19.1596L14.2632 30.2374Z" fill="#FF8159"/>
<path d="M21.1815 30.2376H16.2852L24.4103 10.6521H29.3066L21.1815 30.2376Z" fill="#FF8159"/>
<path d="M181.684 11.2251H181.959C182.375 11.2251 182.642 11.2751 182.759 11.3751C182.892 11.4751 182.976 11.5418 183.009 11.5751C183.059 11.5918 183.117 11.6584 183.184 11.7751C183.267 11.8918 183.317 11.9668 183.334 12.0001C183.367 12.0334 183.426 12.1334 183.509 12.3001C183.592 12.4668 183.651 12.5751 183.684 12.6251C185.734 16.3418 187.626 21.1084 189.359 26.9251C189.409 27.1251 189.434 27.3168 189.434 27.5001C189.434 27.9501 189.176 28.1751 188.659 28.1751H188.059C187.776 28.1751 187.575 28.1251 187.459 28.0251C187.359 27.9251 187.284 27.8501 187.234 27.8001C187.184 27.7501 187.134 27.6584 187.084 27.5251C187.034 27.3751 187.001 27.2668 186.984 27.2001C186.934 27.1001 186.767 26.5334 186.484 25.5001C186.217 24.4501 185.917 23.4418 185.584 22.4751H178.034C177.617 23.7584 177.292 24.8501 177.059 25.7501C176.826 26.6501 176.692 27.1334 176.659 27.2001C176.642 27.2668 176.609 27.3751 176.559 27.5251C176.509 27.6584 176.459 27.7501 176.409 27.8001C176.359 27.8501 176.292 27.9084 176.209 27.9751C176.075 28.1084 175.867 28.1751 175.584 28.1751H174.984C174.451 28.1751 174.184 27.9501 174.184 27.5001C174.184 27.3834 174.217 27.1918 174.284 26.9251C176.017 21.1084 177.909 16.3418 179.959 12.6251C179.992 12.5751 180.051 12.4668 180.134 12.3001C180.217 12.1334 180.267 12.0334 180.284 12.0001C180.317 11.9668 180.367 11.8918 180.434 11.7751C180.517 11.6584 180.576 11.5918 180.609 11.5751C180.659 11.5418 180.726 11.4918 180.809 11.4251C180.892 11.3584 180.967 11.3168 181.034 11.3001C181.267 11.2501 181.484 11.2251 181.684 11.2251ZM181.809 13.6001C180.726 15.5168 179.676 17.8751 178.659 20.6751H184.984C184.384 19.0251 183.326 16.6668 181.809 13.6001Z" fill="white"/>
<path d="M161.964 13.075V19H165.464C166.497 19 167.331 18.7416 167.964 18.225C168.614 17.7083 168.939 16.975 168.939 16.025C168.939 15.0583 168.631 14.325 168.014 13.825C167.414 13.325 166.564 13.075 165.464 13.075H161.964ZM165.539 11.2C166.506 11.2 167.381 11.3416 168.164 11.6249C168.947 11.8916 169.622 12.4083 170.189 13.175C170.756 13.9416 171.039 14.95 171.039 16.2C171.039 17.4333 170.581 18.4666 169.664 19.3C168.747 20.1333 167.631 20.6 166.314 20.7C166.897 21.8 167.772 23.0416 168.939 24.425C170.122 25.8083 171.247 26.8666 172.314 27.6C171.981 28.1333 171.547 28.4 171.014 28.4C170.481 28.4 169.956 28.225 169.439 27.875C168.939 27.525 168.481 27.1166 168.064 26.65C167.647 26.1833 167.172 25.5583 166.639 24.775C166.072 23.9416 165.281 22.6166 164.264 20.8H161.964V27.25C161.964 27.8666 161.631 28.175 160.964 28.175H160.839C160.189 28.175 159.864 27.8666 159.864 27.25V12.175C159.864 11.5416 160.189 11.225 160.839 11.225L165.364 11.2C165.414 11.2 165.472 11.2 165.539 11.2Z" fill="white"/>
<path d="M144.905 11.2H155.555C156.188 11.2 156.505 11.5166 156.505 12.15C156.505 12.7666 156.188 13.075 155.555 13.075H151.305V27.225C151.305 27.8583 150.98 28.175 150.33 28.175H150.105C149.455 28.175 149.13 27.8583 149.13 27.225V13.075H144.905C144.272 13.075 143.955 12.7666 143.955 12.15C143.955 11.5166 144.272 11.2 144.905 11.2Z" fill="white"/>
<path d="M134.467 11.2251H134.742C135.159 11.2251 135.425 11.2751 135.542 11.3751C135.675 11.4751 135.759 11.5418 135.792 11.5751C135.842 11.5918 135.9 11.6584 135.967 11.7751C136.05 11.8918 136.1 11.9668 136.117 12.0001C136.15 12.0334 136.209 12.1334 136.292 12.3001C136.375 12.4668 136.434 12.5751 136.467 12.6251C138.517 16.3418 140.409 21.1084 142.142 26.9251C142.192 27.1251 142.217 27.3168 142.217 27.5001C142.217 27.9501 141.959 28.1751 141.442 28.1751H140.842C140.559 28.1751 140.359 28.1251 140.242 28.0251C140.142 27.9251 140.067 27.8501 140.017 27.8001C139.967 27.7501 139.917 27.6584 139.867 27.5251C139.817 27.3751 139.784 27.2668 139.767 27.2001C139.717 27.1001 139.55 26.5334 139.267 25.5001C139 24.4501 138.7 23.4418 138.367 22.4751H130.817C130.4 23.7584 130.075 24.8501 129.842 25.7501C129.609 26.6501 129.475 27.1334 129.442 27.2001C129.425 27.2668 129.392 27.3751 129.342 27.5251C129.292 27.6584 129.242 27.7501 129.192 27.8001C129.142 27.8501 129.075 27.9084 128.992 27.9751C128.859 28.1084 128.65 28.1751 128.367 28.1751H127.767C127.234 28.1751 126.967 27.9501 126.967 27.5001C126.967 27.3834 127 27.1918 127.067 26.9251C128.8 21.1084 130.692 16.3418 132.742 12.6251C132.775 12.5751 132.834 12.4668 132.917 12.3001C133 12.1334 133.05 12.0334 133.067 12.0001C133.1 11.9668 133.15 11.8918 133.217 11.7751C133.3 11.6584 133.359 11.5918 133.392 11.5751C133.442 11.5418 133.509 11.4918 133.592 11.4251C133.675 11.3584 133.75 11.3168 133.817 11.3001C134.05 11.2501 134.267 11.2251 134.467 11.2251ZM134.592 13.6001C133.509 15.5168 132.459 17.8751 131.442 20.6751H137.767C137.167 19.0251 136.109 16.6668 134.592 13.6001Z" fill="white"/>
<path d="M114.233 11.2H118.783C120.499 11.2 121.899 11.6166 122.983 12.45C124.066 13.2666 124.608 14.575 124.608 16.375C124.608 18.1583 124.066 19.475 122.983 20.325C121.899 21.1583 120.499 21.575 118.783 21.575H115.433V27.225C115.433 27.8583 115.108 28.175 114.458 28.175H114.233C113.583 28.175 113.258 27.8583 113.258 27.225V12.175C113.258 11.525 113.583 11.2 114.233 11.2ZM115.433 13.05V19.7H118.808C121.258 19.7 122.483 18.5916 122.483 16.375C122.483 14.1583 121.258 13.05 118.808 13.05H115.433Z" fill="white"/>
<path d="M98.1926 11.525C99.1426 11.175 100.134 11 101.168 11C102.201 11 103.184 11.175 104.118 11.525C105.051 11.8583 105.909 12.3583 106.693 13.025C107.493 13.6917 108.126 14.6083 108.593 15.775C109.076 16.925 109.318 18.2417 109.318 19.725C109.318 21.1917 109.076 22.5 108.593 23.65C108.126 24.7833 107.493 25.6833 106.693 26.35C105.909 27.0167 105.051 27.525 104.118 27.875C103.184 28.2083 102.201 28.375 101.168 28.375C100.134 28.375 99.1426 28.2083 98.1926 27.875C97.2592 27.525 96.3926 27.0167 95.5926 26.35C94.8092 25.6833 94.1842 24.7833 93.7176 23.65C93.2509 22.5 93.0176 21.1917 93.0176 19.725C93.0176 18.2417 93.2509 16.925 93.7176 15.775C94.1842 14.6083 94.8092 13.6917 95.5926 13.025C96.3926 12.3583 97.2592 11.8583 98.1926 11.525ZM105.368 14.675C104.201 13.5083 102.801 12.925 101.168 12.925C99.5342 12.925 98.1259 13.5083 96.9426 14.675C95.7759 15.8417 95.1926 17.5167 95.1926 19.7C95.1926 21.8667 95.7759 23.5333 96.9426 24.7C98.1259 25.8667 99.5342 26.45 101.168 26.45C102.801 26.45 104.201 25.8667 105.368 24.7C106.551 23.5333 107.143 21.8667 107.143 19.7C107.143 17.5167 106.551 15.8417 105.368 14.675Z" fill="white"/>
<path d="M80.6388 11.2H89.2638C89.8805 11.2 90.1888 11.5166 90.1888 12.15C90.1888 12.7666 89.8805 13.075 89.2638 13.075H81.8388V18.425H88.4388C89.0555 18.425 89.3638 18.7416 89.3638 19.375C89.3638 19.9916 89.0555 20.3 88.4388 20.3H81.8388V26.3H89.2638C89.8805 26.3 90.1888 26.6166 90.1888 27.25C90.1888 27.8666 89.8805 28.175 89.2638 28.175H80.6388C79.9888 28.175 79.6638 27.8583 79.6638 27.225V12.15C79.6638 11.5166 79.9888 11.2 80.6388 11.2Z" fill="white"/>
<path d="M66.4055 11.2H66.6305C67.2805 11.2 67.6055 11.5166 67.6055 12.15V26.3H75.3055C75.9388 26.3 76.2555 26.6166 76.2555 27.25C76.2555 27.8666 75.9388 28.175 75.3055 28.175H66.4055C65.7555 28.175 65.4305 27.8583 65.4305 27.225V12.15C65.4305 11.5166 65.7555 11.2 66.4055 11.2Z" fill="white"/>
<path d="M55.275 11C57.0417 11 58.4917 11.35 59.625 12.05C60.775 12.75 61.35 13.525 61.35 14.375C61.35 14.7417 61.2083 15.0417 60.925 15.275C60.6583 15.4917 60.3 15.6 59.85 15.6C59.3333 13.8333 57.8083 12.95 55.275 12.95C53.6083 12.95 52.1917 13.5167 51.025 14.65C49.875 15.7667 49.3 17.4333 49.3 19.65C49.3 21.85 49.8833 23.5417 51.05 24.725C52.2167 25.8917 53.625 26.475 55.275 26.475C57.8417 26.475 59.475 25.5333 60.175 23.65C60.575 23.65 60.8833 23.7667 61.1 24C61.3333 24.2167 61.45 24.5083 61.45 24.875C61.45 25.725 60.8667 26.525 59.7 27.275C58.5333 28.0083 57.0583 28.375 55.275 28.375C52.925 28.375 50.9583 27.6167 49.375 26.1C47.7917 24.5833 47 22.4333 47 19.65C47 16.8667 47.7917 14.7333 49.375 13.25C50.9583 11.75 52.925 11 55.275 11Z" fill="white"/>
</svg>
