<svg width="210" height="39" viewBox="0 0 210 39" fill="none" xmlns="http://www.w3.org/2000/svg">
<path d="M38 38.1142H0V28.4634H4.64799V33.4662H33.3875V29.244H38V38.1142Z" fill="#0C1524"/>
<path d="M38 10.1553H33.3875V4.72677H4.64799V9.76505H0V0.114258H38V10.1553Z" fill="#0C1524"/>
<path d="M14.2632 30.2374H9.40234L14.2632 18.3513H19.1596L14.2632 30.2374Z" fill="#FF8159"/>
<path d="M21.1815 30.2376H16.2852L24.4103 10.6521H29.3066L21.1815 30.2376Z" fill="#FF8159"/>
<path d="M180.684 11.2251H180.959C181.375 11.2251 181.642 11.2751 181.759 11.3751C181.892 11.4751 181.976 11.5418 182.009 11.5751C182.059 11.5918 182.117 11.6584 182.184 11.7751C182.267 11.8918 182.317 11.9668 182.334 12.0001C182.367 12.0334 182.426 12.1334 182.509 12.3001C182.592 12.4668 182.651 12.5751 182.684 12.6251C184.734 16.3418 186.626 21.1084 188.359 26.9251C188.409 27.1251 188.434 27.3168 188.434 27.5001C188.434 27.9501 188.176 28.1751 187.659 28.1751H187.059C186.776 28.1751 186.575 28.1251 186.459 28.0251C186.359 27.9251 186.284 27.8501 186.234 27.8001C186.184 27.7501 186.134 27.6584 186.084 27.5251C186.034 27.3751 186.001 27.2668 185.984 27.2001C185.934 27.1001 185.767 26.5334 185.484 25.5001C185.217 24.4501 184.917 23.4418 184.584 22.4751H177.034C176.617 23.7584 176.292 24.8501 176.059 25.7501C175.826 26.6501 175.692 27.1334 175.659 27.2001C175.642 27.2668 175.609 27.3751 175.559 27.5251C175.509 27.6584 175.459 27.7501 175.409 27.8001C175.359 27.8501 175.292 27.9084 175.209 27.9751C175.075 28.1084 174.867 28.1751 174.584 28.1751H173.984C173.451 28.1751 173.184 27.9501 173.184 27.5001C173.184 27.3834 173.217 27.1918 173.284 26.9251C175.017 21.1084 176.909 16.3418 178.959 12.6251C178.992 12.5751 179.051 12.4668 179.134 12.3001C179.217 12.1334 179.267 12.0334 179.284 12.0001C179.317 11.9668 179.367 11.8918 179.434 11.7751C179.517 11.6584 179.576 11.5918 179.609 11.5751C179.659 11.5418 179.726 11.4918 179.809 11.4251C179.892 11.3584 179.967 11.3168 180.034 11.3001C180.267 11.2501 180.484 11.2251 180.684 11.2251ZM180.809 13.6001C179.726 15.5168 178.676 17.8751 177.659 20.6751H183.984C183.384 19.0251 182.326 16.6668 180.809 13.6001Z" fill="black"/>
<path d="M160.964 13.075V19H164.464C165.497 19 166.331 18.7416 166.964 18.225C167.614 17.7083 167.939 16.975 167.939 16.025C167.939 15.0583 167.631 14.325 167.014 13.825C166.414 13.325 165.564 13.075 164.464 13.075H160.964ZM164.539 11.2C165.506 11.2 166.381 11.3416 167.164 11.6249C167.947 11.8916 168.622 12.4083 169.189 13.175C169.756 13.9416 170.039 14.95 170.039 16.2C170.039 17.4333 169.581 18.4666 168.664 19.3C167.747 20.1333 166.631 20.6 165.314 20.7C165.897 21.8 166.772 23.0416 167.939 24.425C169.122 25.8083 170.247 26.8666 171.314 27.6C170.981 28.1333 170.547 28.4 170.014 28.4C169.481 28.4 168.956 28.225 168.439 27.875C167.939 27.525 167.481 27.1166 167.064 26.65C166.647 26.1833 166.172 25.5583 165.639 24.775C165.072 23.9416 164.281 22.6166 163.264 20.8H160.964V27.25C160.964 27.8666 160.631 28.175 159.964 28.175H159.839C159.189 28.175 158.864 27.8666 158.864 27.25V12.175C158.864 11.5416 159.189 11.225 159.839 11.225L164.364 11.2C164.414 11.2 164.472 11.2 164.539 11.2Z" fill="black"/>
<path d="M143.905 11.2H154.555C155.188 11.2 155.505 11.5166 155.505 12.15C155.505 12.7666 155.188 13.075 154.555 13.075H150.305V27.225C150.305 27.8583 149.98 28.175 149.33 28.175H149.105C148.455 28.175 148.13 27.8583 148.13 27.225V13.075H143.905C143.272 13.075 142.955 12.7666 142.955 12.15C142.955 11.5166 143.272 11.2 143.905 11.2Z" fill="black"/>
<path d="M133.467 11.2251H133.742C134.159 11.2251 134.425 11.2751 134.542 11.3751C134.675 11.4751 134.759 11.5418 134.792 11.5751C134.842 11.5918 134.9 11.6584 134.967 11.7751C135.05 11.8918 135.1 11.9668 135.117 12.0001C135.15 12.0334 135.209 12.1334 135.292 12.3001C135.375 12.4668 135.434 12.5751 135.467 12.6251C137.517 16.3418 139.409 21.1084 141.142 26.9251C141.192 27.1251 141.217 27.3168 141.217 27.5001C141.217 27.9501 140.959 28.1751 140.442 28.1751H139.842C139.559 28.1751 139.359 28.1251 139.242 28.0251C139.142 27.9251 139.067 27.8501 139.017 27.8001C138.967 27.7501 138.917 27.6584 138.867 27.5251C138.817 27.3751 138.784 27.2668 138.767 27.2001C138.717 27.1001 138.55 26.5334 138.267 25.5001C138 24.4501 137.7 23.4418 137.367 22.4751H129.817C129.4 23.7584 129.075 24.8501 128.842 25.7501C128.609 26.6501 128.475 27.1334 128.442 27.2001C128.425 27.2668 128.392 27.3751 128.342 27.5251C128.292 27.6584 128.242 27.7501 128.192 27.8001C128.142 27.8501 128.075 27.9084 127.992 27.9751C127.859 28.1084 127.65 28.1751 127.367 28.1751H126.767C126.234 28.1751 125.967 27.9501 125.967 27.5001C125.967 27.3834 126 27.1918 126.067 26.9251C127.8 21.1084 129.692 16.3418 131.742 12.6251C131.775 12.5751 131.834 12.4668 131.917 12.3001C132 12.1334 132.05 12.0334 132.067 12.0001C132.1 11.9668 132.15 11.8918 132.217 11.7751C132.3 11.6584 132.359 11.5918 132.392 11.5751C132.442 11.5418 132.509 11.4918 132.592 11.4251C132.675 11.3584 132.75 11.3168 132.817 11.3001C133.05 11.2501 133.267 11.2251 133.467 11.2251ZM133.592 13.6001C132.509 15.5168 131.459 17.8751 130.442 20.6751H136.767C136.167 19.0251 135.109 16.6668 133.592 13.6001Z" fill="black"/>
<path d="M113.233 11.2H117.783C119.499 11.2 120.899 11.6166 121.983 12.45C123.066 13.2666 123.608 14.575 123.608 16.375C123.608 18.1583 123.066 19.475 121.983 20.325C120.899 21.1583 119.499 21.575 117.783 21.575H114.433V27.225C114.433 27.8583 114.108 28.175 113.458 28.175H113.233C112.583 28.175 112.258 27.8583 112.258 27.225V12.175C112.258 11.525 112.583 11.2 113.233 11.2ZM114.433 13.05V19.7H117.808C120.258 19.7 121.483 18.5916 121.483 16.375C121.483 14.1583 120.258 13.05 117.808 13.05H114.433Z" fill="black"/>
<path d="M97.1926 11.525C98.1426 11.175 99.1342 11 100.168 11C101.201 11 102.184 11.175 103.118 11.525C104.051 11.8583 104.909 12.3583 105.693 13.025C106.493 13.6917 107.126 14.6083 107.593 15.775C108.076 16.925 108.318 18.2417 108.318 19.725C108.318 21.1917 108.076 22.5 107.593 23.65C107.126 24.7833 106.493 25.6833 105.693 26.35C104.909 27.0167 104.051 27.525 103.118 27.875C102.184 28.2083 101.201 28.375 100.168 28.375C99.1342 28.375 98.1426 28.2083 97.1926 27.875C96.2592 27.525 95.3926 27.0167 94.5926 26.35C93.8092 25.6833 93.1842 24.7833 92.7176 23.65C92.2509 22.5 92.0176 21.1917 92.0176 19.725C92.0176 18.2417 92.2509 16.925 92.7176 15.775C93.1842 14.6083 93.8092 13.6917 94.5926 13.025C95.3926 12.3583 96.2592 11.8583 97.1926 11.525ZM104.368 14.675C103.201 13.5083 101.801 12.925 100.168 12.925C98.5342 12.925 97.1259 13.5083 95.9426 14.675C94.7759 15.8417 94.1926 17.5167 94.1926 19.7C94.1926 21.8667 94.7759 23.5333 95.9426 24.7C97.1259 25.8667 98.5342 26.45 100.168 26.45C101.801 26.45 103.201 25.8667 104.368 24.7C105.551 23.5333 106.143 21.8667 106.143 19.7C106.143 17.5167 105.551 15.8417 104.368 14.675Z" fill="black"/>
<path d="M79.6388 11.2H88.2638C88.8805 11.2 89.1888 11.5166 89.1888 12.15C89.1888 12.7666 88.8805 13.075 88.2638 13.075H80.8388V18.425H87.4388C88.0555 18.425 88.3638 18.7416 88.3638 19.375C88.3638 19.9916 88.0555 20.3 87.4388 20.3H80.8388V26.3H88.2638C88.8805 26.3 89.1888 26.6166 89.1888 27.25C89.1888 27.8666 88.8805 28.175 88.2638 28.175H79.6388C78.9888 28.175 78.6638 27.8583 78.6638 27.225V12.15C78.6638 11.5166 78.9888 11.2 79.6388 11.2Z" fill="black"/>
<path d="M65.4055 11.2H65.6305C66.2805 11.2 66.6055 11.5166 66.6055 12.15V26.3H74.3055C74.9388 26.3 75.2555 26.6166 75.2555 27.25C75.2555 27.8666 74.9388 28.175 74.3055 28.175H65.4055C64.7555 28.175 64.4305 27.8583 64.4305 27.225V12.15C64.4305 11.5166 64.7555 11.2 65.4055 11.2Z" fill="black"/>
<path d="M54.275 11C56.0417 11 57.4917 11.35 58.625 12.05C59.775 12.75 60.35 13.525 60.35 14.375C60.35 14.7417 60.2083 15.0417 59.925 15.275C59.6583 15.4917 59.3 15.6 58.85 15.6C58.3333 13.8333 56.8083 12.95 54.275 12.95C52.6083 12.95 51.1917 13.5167 50.025 14.65C48.875 15.7667 48.3 17.4333 48.3 19.65C48.3 21.85 48.8833 23.5417 50.05 24.725C51.2167 25.8917 52.625 26.475 54.275 26.475C56.8417 26.475 58.475 25.5333 59.175 23.65C59.575 23.65 59.8833 23.7667 60.1 24C60.3333 24.2167 60.45 24.5083 60.45 24.875C60.45 25.725 59.8667 26.525 58.7 27.275C57.5333 28.0083 56.0583 28.375 54.275 28.375C51.925 28.375 49.9583 27.6167 48.375 26.1C46.7917 24.5833 46 22.4333 46 19.65C46 16.8667 46.7917 14.7333 48.375 13.25C49.9583 11.75 51.925 11 54.275 11Z" fill="black"/>
</svg>
